<?xml version="1.0" standalone="no"?>
<!DOCTYPE svg PUBLIC "-//W3C//DTD SVG 20010904//EN"
 "http://www.w3.org/TR/2001/REC-SVG-20010904/DTD/svg10.dtd">
<svg version="1.0" xmlns="http://www.w3.org/2000/svg"
 width="229.000000pt" height="201.000000pt" viewBox="0 0 229.000000 201.000000"
 preserveAspectRatio="xMidYMid meet">
<metadata>
Created by potrace 1.16, written by Peter Selinger 2001-2019
</metadata>
<g transform="translate(0.000000,201.000000) scale(0.100000,-0.100000)"
fill="#000000" stroke="none">
<path d="M2164 1757 c-29 -17 -163 -126 -199 -162 -191 -189 -353 -336 -407
-372 -39 -26 -41 -27 -54 -8 -20 27 -17 50 10 93 68 108 117 235 98 254 -38
38 -107 -77 -149 -251 -16 -65 -48 -131 -63 -131 -5 0 -12 -10 -16 -22 -9 -31
-144 -183 -207 -235 -63 -52 -92 -62 -134 -51 -38 10 -40 19 -15 56 30 43 107
192 137 264 33 80 29 118 -12 118 -86 0 -226 -278 -197 -389 10 -36 8 -44 -23
-93 -93 -150 -206 -258 -270 -258 -58 0 -68 37 -28 105 35 59 85 198 96 268
16 100 -3 119 -70 70 -52 -37 -89 -123 -106 -245 -5 -39 -4 -47 8 -42 9 3 21
39 31 92 21 110 54 177 87 177 23 0 24 -3 21 -60 -5 -91 -112 -326 -112 -246
0 25 -18 37 -33 22 -8 -8 -8 -16 -1 -29 45 -72 -86 -251 -239 -327 -78 -39
-104 -42 -153 -19 -46 22 -55 11 -13 -16 27 -17 45 -20 87 -16 80 7 209 86
254 155 9 14 32 43 50 64 31 36 35 38 60 27 78 -36 204 52 324 227 54 78 58
81 83 71 35 -13 94 -2 139 26 54 34 153 137 234 244 65 84 73 91 88 77 22 -20
59 -19 95 4 42 26 141 116 343 310 95 91 198 183 230 204 54 36 74 57 55 57
-4 -1 -17 -6 -29 -13z m-1006 -509 c3 -25 -49 -143 -88 -198 -10 -14 -21 -36
-25 -50 -7 -22 -37 -60 -48 -60 -12 0 -15 49 -6 94 22 102 116 255 151 244 7
-3 14 -16 16 -30z"/>
</g>
</svg>
